<?xml version="1.0" encoding="UTF-8"?>
<svg width="512" height="512" viewBox="0 0 256 256" xmlns="http://www.w3.org/2000/svg" role="img" aria-label="Shub logo">
  <defs>
    <linearGradient id="g" x1="0" y1="0" x2="1" y2="1">
      <stop offset="0%" stop-color="#8a4bff"/>
      <stop offset="100%" stop-color="#5a3bff"/>
    </linearGradient>
    <filter id="softShadow" x="-20%" y="-20%" width="140%" height="140%">
      <feDropShadow dx="0" dy="6" stdDeviation="10" flood-opacity="0.18"/>
    </filter>
    <clipPath id="bubbleClip">
      <!-- Rounded square with a small chat tail -->
      <path d="M44 24h132c22 0 40 18 40 40v86c0 22-18 40-40 40H98l-34 24c-7 5-16-2-13-10l10-28H44c-22 0-40-18-40-40V64c0-22 18-40 40-40z"/>
    </clipPath>
  </defs>

  <!-- Chat bubble background -->
  <g filter="url(#softShadow)">
    <path fill="url(#g)" d="M44 24h132c22 0 40 18 40 40v86c0 22-18 40-40 40H98l-34 24c-7 5-16-2-13-10l10-28H44c-22 0-40-18-40-40V64c0-22 18-40 40-40z" />
  </g>

  <!-- User silhouette (head + shoulders), clipped to bubble -->
  <g clip-path="url(#bubbleClip)">
    <circle cx="110" cy="98" r="26" fill="white"/>
    <!-- shoulders: rounded capsule -->
    <path d="M56 162c0-24 22-44 54-44s54 20 54 44v18H56z" fill="white"/>
  </g>
</svg>
